<mxfile host="app.diagrams.net" agent="Mozilla/5.0 (Windows NT 10.0; Win64; x64) AppleWebKit/537.36 (KHTML, like Gecko) Chrome/129.0.0.0 Safari/537.36" version="25.0.1" pages="2">
  <diagram name="Page-1" id="Yks6FWbi4QIXOOoiKPTH">
    <mxGraphModel dx="700" dy="353" grid="1" gridSize="10" guides="1" tooltips="1" connect="1" arrows="1" fold="1" page="1" pageScale="1" pageWidth="1100" pageHeight="850" math="0" shadow="0">
      <root>
        <mxCell id="0" />
        <mxCell id="1" parent="0" />
        <mxCell id="ayOUJVhJBm3OdMp9GAKg-1" value="Patient" style="rounded=0;whiteSpace=wrap;html=1;fontSize=12;" parent="1" vertex="1">
          <mxGeometry x="460" y="280" width="120" height="60" as="geometry" />
        </mxCell>
        <mxCell id="ayOUJVhJBm3OdMp9GAKg-2" value="Appointment" style="rounded=0;whiteSpace=wrap;html=1;fontSize=12;" parent="1" vertex="1">
          <mxGeometry x="760" y="280" width="120" height="60" as="geometry" />
        </mxCell>
        <mxCell id="ayOUJVhJBm3OdMp9GAKg-3" value="Name" style="ellipse;whiteSpace=wrap;html=1;fontSize=12;" parent="1" vertex="1">
          <mxGeometry x="260" y="190" width="100" height="60" as="geometry" />
        </mxCell>
        <mxCell id="ayOUJVhJBm3OdMp9GAKg-4" value="Address" style="ellipse;whiteSpace=wrap;html=1;fontSize=12;" parent="1" vertex="1">
          <mxGeometry x="260" y="280" width="100" height="60" as="geometry" />
        </mxCell>
        <mxCell id="ayOUJVhJBm3OdMp9GAKg-5" value="PhoneNumber" style="ellipse;whiteSpace=wrap;html=1;fontSize=12;" parent="1" vertex="1">
          <mxGeometry x="260" y="370" width="100" height="60" as="geometry" />
        </mxCell>
        <mxCell id="ayOUJVhJBm3OdMp9GAKg-6" value="DateOfBirth" style="ellipse;whiteSpace=wrap;html=1;fontSize=12;" parent="1" vertex="1">
          <mxGeometry x="330" y="450" width="100" height="60" as="geometry" />
        </mxCell>
        <mxCell id="ayOUJVhJBm3OdMp9GAKg-7" value="&lt;u style=&quot;font-size: 12px;&quot;&gt;PatientID&lt;/u&gt;" style="ellipse;whiteSpace=wrap;html=1;fontSize=12;" parent="1" vertex="1">
          <mxGeometry x="340" y="110" width="100" height="60" as="geometry" />
        </mxCell>
        <mxCell id="ayOUJVhJBm3OdMp9GAKg-8" value="Has" style="rhombus;whiteSpace=wrap;html=1;fontSize=12;" parent="1" vertex="1">
          <mxGeometry x="620" y="270" width="95" height="80" as="geometry" />
        </mxCell>
        <mxCell id="ayOUJVhJBm3OdMp9GAKg-14" value="" style="endArrow=none;html=1;rounded=0;entryX=0;entryY=0.5;entryDx=0;entryDy=0;exitX=1;exitY=0.5;exitDx=0;exitDy=0;fontSize=12;" parent="1" source="ayOUJVhJBm3OdMp9GAKg-8" target="ayOUJVhJBm3OdMp9GAKg-2" edge="1">
          <mxGeometry width="50" height="50" relative="1" as="geometry">
            <mxPoint x="500" y="360" as="sourcePoint" />
            <mxPoint x="550" y="310" as="targetPoint" />
          </mxGeometry>
        </mxCell>
        <mxCell id="ayOUJVhJBm3OdMp9GAKg-38" value="N" style="edgeLabel;html=1;align=center;verticalAlign=middle;resizable=0;points=[];fontSize=12;" parent="ayOUJVhJBm3OdMp9GAKg-14" vertex="1" connectable="0">
          <mxGeometry x="0.0222" y="1" relative="1" as="geometry">
            <mxPoint x="12" y="-9" as="offset" />
          </mxGeometry>
        </mxCell>
        <mxCell id="ayOUJVhJBm3OdMp9GAKg-17" value="" style="endArrow=none;html=1;rounded=0;entryX=0;entryY=0.5;entryDx=0;entryDy=0;exitX=1;exitY=0.5;exitDx=0;exitDy=0;fontSize=12;" parent="1" source="ayOUJVhJBm3OdMp9GAKg-1" target="ayOUJVhJBm3OdMp9GAKg-8" edge="1">
          <mxGeometry width="50" height="50" relative="1" as="geometry">
            <mxPoint x="500" y="360" as="sourcePoint" />
            <mxPoint x="550" y="310" as="targetPoint" />
          </mxGeometry>
        </mxCell>
        <mxCell id="ayOUJVhJBm3OdMp9GAKg-37" value="1" style="edgeLabel;html=1;align=center;verticalAlign=middle;resizable=0;points=[];fontSize=12;" parent="ayOUJVhJBm3OdMp9GAKg-17" vertex="1" connectable="0">
          <mxGeometry x="-0.05" y="-1" relative="1" as="geometry">
            <mxPoint x="-9" y="-11" as="offset" />
          </mxGeometry>
        </mxCell>
        <mxCell id="ayOUJVhJBm3OdMp9GAKg-20" value="" style="endArrow=none;html=1;rounded=0;entryX=0;entryY=0.5;entryDx=0;entryDy=0;exitX=1;exitY=0.5;exitDx=0;exitDy=0;fontSize=12;" parent="1" source="ayOUJVhJBm3OdMp9GAKg-5" target="ayOUJVhJBm3OdMp9GAKg-1" edge="1">
          <mxGeometry width="50" height="50" relative="1" as="geometry">
            <mxPoint x="380" y="390" as="sourcePoint" />
            <mxPoint x="430" y="340" as="targetPoint" />
          </mxGeometry>
        </mxCell>
        <mxCell id="ayOUJVhJBm3OdMp9GAKg-21" value="" style="endArrow=none;html=1;rounded=0;entryX=0;entryY=0.5;entryDx=0;entryDy=0;exitX=0.7;exitY=0;exitDx=0;exitDy=0;exitPerimeter=0;fontSize=12;" parent="1" source="ayOUJVhJBm3OdMp9GAKg-6" target="ayOUJVhJBm3OdMp9GAKg-1" edge="1">
          <mxGeometry width="50" height="50" relative="1" as="geometry">
            <mxPoint x="370" y="450" as="sourcePoint" />
            <mxPoint x="470" y="360" as="targetPoint" />
          </mxGeometry>
        </mxCell>
        <mxCell id="ayOUJVhJBm3OdMp9GAKg-22" value="" style="endArrow=none;html=1;rounded=0;entryX=0;entryY=0.5;entryDx=0;entryDy=0;exitX=1.01;exitY=0.617;exitDx=0;exitDy=0;exitPerimeter=0;fontSize=12;" parent="1" source="ayOUJVhJBm3OdMp9GAKg-3" target="ayOUJVhJBm3OdMp9GAKg-1" edge="1">
          <mxGeometry width="50" height="50" relative="1" as="geometry">
            <mxPoint x="480" y="620" as="sourcePoint" />
            <mxPoint x="580" y="530" as="targetPoint" />
          </mxGeometry>
        </mxCell>
        <mxCell id="ayOUJVhJBm3OdMp9GAKg-23" value="" style="endArrow=none;html=1;rounded=0;exitX=0.68;exitY=1;exitDx=0;exitDy=0;entryX=0;entryY=0.5;entryDx=0;entryDy=0;exitPerimeter=0;fontSize=12;" parent="1" source="ayOUJVhJBm3OdMp9GAKg-7" target="ayOUJVhJBm3OdMp9GAKg-1" edge="1">
          <mxGeometry width="50" height="50" relative="1" as="geometry">
            <mxPoint x="680" y="540" as="sourcePoint" />
            <mxPoint x="470" y="400" as="targetPoint" />
          </mxGeometry>
        </mxCell>
        <mxCell id="ayOUJVhJBm3OdMp9GAKg-24" value="" style="endArrow=none;html=1;rounded=0;entryX=0;entryY=0.5;entryDx=0;entryDy=0;exitX=1;exitY=0.5;exitDx=0;exitDy=0;fontSize=12;" parent="1" source="ayOUJVhJBm3OdMp9GAKg-4" target="ayOUJVhJBm3OdMp9GAKg-1" edge="1">
          <mxGeometry width="50" height="50" relative="1" as="geometry">
            <mxPoint x="370" y="320" as="sourcePoint" />
            <mxPoint x="670" y="400" as="targetPoint" />
          </mxGeometry>
        </mxCell>
        <mxCell id="ayOUJVhJBm3OdMp9GAKg-25" value="&lt;u style=&quot;font-size: 12px;&quot;&gt;AppointmentID&lt;/u&gt;" style="ellipse;whiteSpace=wrap;html=1;fontSize=12;" parent="1" vertex="1">
          <mxGeometry x="980" y="150" width="110" height="80" as="geometry" />
        </mxCell>
        <mxCell id="ayOUJVhJBm3OdMp9GAKg-26" value="Date" style="ellipse;whiteSpace=wrap;html=1;fontSize=12;" parent="1" vertex="1">
          <mxGeometry x="980" y="240" width="110" height="80" as="geometry" />
        </mxCell>
        <mxCell id="ayOUJVhJBm3OdMp9GAKg-27" value="Time" style="ellipse;whiteSpace=wrap;html=1;fontSize=12;" parent="1" vertex="1">
          <mxGeometry x="980" y="330" width="110" height="80" as="geometry" />
        </mxCell>
        <mxCell id="ayOUJVhJBm3OdMp9GAKg-28" value="PatientID (Foreign Key)" style="ellipse;whiteSpace=wrap;html=1;fontSize=12;" parent="1" vertex="1">
          <mxGeometry x="980" y="420" width="110" height="80" as="geometry" />
        </mxCell>
        <mxCell id="ayOUJVhJBm3OdMp9GAKg-29" value="" style="endArrow=none;html=1;rounded=0;entryX=1;entryY=0.5;entryDx=0;entryDy=0;exitX=0;exitY=0.5;exitDx=0;exitDy=0;fontSize=12;" parent="1" source="ayOUJVhJBm3OdMp9GAKg-27" target="ayOUJVhJBm3OdMp9GAKg-2" edge="1">
          <mxGeometry width="50" height="50" relative="1" as="geometry">
            <mxPoint x="1100" y="350" as="sourcePoint" />
            <mxPoint x="1180" y="270" as="targetPoint" />
          </mxGeometry>
        </mxCell>
        <mxCell id="ayOUJVhJBm3OdMp9GAKg-30" value="" style="endArrow=none;html=1;rounded=0;entryX=1;entryY=0.5;entryDx=0;entryDy=0;exitX=0;exitY=0.5;exitDx=0;exitDy=0;fontSize=12;" parent="1" source="ayOUJVhJBm3OdMp9GAKg-28" target="ayOUJVhJBm3OdMp9GAKg-2" edge="1">
          <mxGeometry width="50" height="50" relative="1" as="geometry">
            <mxPoint x="1090" y="410" as="sourcePoint" />
            <mxPoint x="1180" y="270" as="targetPoint" />
          </mxGeometry>
        </mxCell>
        <mxCell id="ayOUJVhJBm3OdMp9GAKg-31" value="" style="endArrow=none;html=1;rounded=0;entryX=1;entryY=0.5;entryDx=0;entryDy=0;exitX=0;exitY=0.5;exitDx=0;exitDy=0;fontSize=12;" parent="1" source="ayOUJVhJBm3OdMp9GAKg-25" target="ayOUJVhJBm3OdMp9GAKg-2" edge="1">
          <mxGeometry width="50" height="50" relative="1" as="geometry">
            <mxPoint x="1200" y="580" as="sourcePoint" />
            <mxPoint x="1180" y="270" as="targetPoint" />
          </mxGeometry>
        </mxCell>
        <mxCell id="ayOUJVhJBm3OdMp9GAKg-32" value="" style="endArrow=none;html=1;rounded=0;entryX=1;entryY=0.5;entryDx=0;entryDy=0;exitX=0;exitY=0.5;exitDx=0;exitDy=0;fontSize=12;" parent="1" source="ayOUJVhJBm3OdMp9GAKg-26" target="ayOUJVhJBm3OdMp9GAKg-2" edge="1">
          <mxGeometry width="50" height="50" relative="1" as="geometry">
            <mxPoint x="1090" y="280" as="sourcePoint" />
            <mxPoint x="1180" y="270" as="targetPoint" />
          </mxGeometry>
        </mxCell>
        <mxCell id="ayOUJVhJBm3OdMp9GAKg-33" value="Abbreviation:&lt;br style=&quot;font-size: 12px;&quot;&gt;&lt;br style=&quot;font-size: 12px;&quot;&gt;PK - Primary Key (most of the parts, I showed primary key just by underlined format)&lt;br style=&quot;font-size: 12px;&quot;&gt;FK - Foreigner Key" style="rounded=0;whiteSpace=wrap;html=1;fillColor=#d5e8d4;strokeColor=#82b366;fontSize=12;" parent="1" vertex="1">
          <mxGeometry x="740" width="330" height="80" as="geometry" />
        </mxCell>
        <mxCell id="ayOUJVhJBm3OdMp9GAKg-93" style="edgeStyle=orthogonalEdgeStyle;rounded=0;orthogonalLoop=1;jettySize=auto;html=1;fontSize=12;" parent="1" source="ayOUJVhJBm3OdMp9GAKg-35" target="ayOUJVhJBm3OdMp9GAKg-44" edge="1">
          <mxGeometry relative="1" as="geometry" />
        </mxCell>
        <mxCell id="ayOUJVhJBm3OdMp9GAKg-94" style="edgeStyle=orthogonalEdgeStyle;rounded=0;orthogonalLoop=1;jettySize=auto;html=1;exitX=0.5;exitY=1;exitDx=0;exitDy=0;fontSize=12;" parent="1" source="ayOUJVhJBm3OdMp9GAKg-35" target="ayOUJVhJBm3OdMp9GAKg-43" edge="1">
          <mxGeometry relative="1" as="geometry">
            <Array as="points">
              <mxPoint x="800" y="890" />
              <mxPoint x="800" y="940" />
              <mxPoint x="640" y="940" />
            </Array>
          </mxGeometry>
        </mxCell>
        <mxCell id="ayOUJVhJBm3OdMp9GAKg-35" value="Doctor" style="rounded=0;whiteSpace=wrap;html=1;fontSize=12;" parent="1" vertex="1">
          <mxGeometry x="760" y="830" width="120" height="60" as="geometry" />
        </mxCell>
        <mxCell id="ayOUJVhJBm3OdMp9GAKg-36" value="Involves" style="rhombus;whiteSpace=wrap;html=1;fontSize=12;" parent="1" vertex="1">
          <mxGeometry x="772.5" y="470" width="95" height="80" as="geometry" />
        </mxCell>
        <mxCell id="ayOUJVhJBm3OdMp9GAKg-39" value="" style="endArrow=none;html=1;rounded=0;entryX=0.5;entryY=0;entryDx=0;entryDy=0;exitX=0.5;exitY=1;exitDx=0;exitDy=0;fontSize=12;" parent="1" source="ayOUJVhJBm3OdMp9GAKg-2" target="ayOUJVhJBm3OdMp9GAKg-36" edge="1">
          <mxGeometry width="50" height="50" relative="1" as="geometry">
            <mxPoint x="820" y="380" as="sourcePoint" />
            <mxPoint x="865" y="380" as="targetPoint" />
          </mxGeometry>
        </mxCell>
        <mxCell id="ayOUJVhJBm3OdMp9GAKg-40" value="1" style="edgeLabel;html=1;align=center;verticalAlign=middle;resizable=0;points=[];fontSize=12;" parent="ayOUJVhJBm3OdMp9GAKg-39" vertex="1" connectable="0">
          <mxGeometry x="0.0222" y="1" relative="1" as="geometry">
            <mxPoint x="9" y="-57" as="offset" />
          </mxGeometry>
        </mxCell>
        <mxCell id="ayOUJVhJBm3OdMp9GAKg-41" value="" style="endArrow=none;html=1;rounded=0;entryX=0.5;entryY=0;entryDx=0;entryDy=0;exitX=0.5;exitY=1;exitDx=0;exitDy=0;fontSize=12;" parent="1" source="ayOUJVhJBm3OdMp9GAKg-36" target="ayOUJVhJBm3OdMp9GAKg-35" edge="1">
          <mxGeometry width="50" height="50" relative="1" as="geometry">
            <mxPoint x="810" y="530" as="sourcePoint" />
            <mxPoint x="855" y="530" as="targetPoint" />
          </mxGeometry>
        </mxCell>
        <mxCell id="ayOUJVhJBm3OdMp9GAKg-86" value="N" style="edgeLabel;html=1;align=center;verticalAlign=middle;resizable=0;points=[];fontSize=12;" parent="ayOUJVhJBm3OdMp9GAKg-41" vertex="1" connectable="0">
          <mxGeometry x="0.3767" y="-2" relative="1" as="geometry">
            <mxPoint x="12" y="77" as="offset" />
          </mxGeometry>
        </mxCell>
        <mxCell id="ayOUJVhJBm3OdMp9GAKg-43" value="Medical Doc" style="shape=ext;margin=3;double=1;whiteSpace=wrap;html=1;align=center;fontSize=12;" parent="1" vertex="1">
          <mxGeometry x="580" y="1090" width="120" height="60" as="geometry" />
        </mxCell>
        <mxCell id="ayOUJVhJBm3OdMp9GAKg-44" value="Specialist Doc" style="shape=ext;margin=3;double=1;whiteSpace=wrap;html=1;align=center;fontSize=12;" parent="1" vertex="1">
          <mxGeometry x="760" y="1090" width="120" height="60" as="geometry" />
        </mxCell>
        <mxCell id="ayOUJVhJBm3OdMp9GAKg-45" value="Specialty" style="rounded=0;whiteSpace=wrap;html=1;fontSize=12;" parent="1" vertex="1">
          <mxGeometry x="760" y="1400.33" width="120" height="60" as="geometry" />
        </mxCell>
        <mxCell id="ayOUJVhJBm3OdMp9GAKg-46" value="Bill" style="rounded=0;whiteSpace=wrap;html=1;fontSize=12;" parent="1" vertex="1">
          <mxGeometry x="460" y="830" width="120" height="60" as="geometry" />
        </mxCell>
        <mxCell id="ayOUJVhJBm3OdMp9GAKg-47" value="Payment" style="rounded=0;whiteSpace=wrap;html=1;fontSize=12;" parent="1" vertex="1">
          <mxGeometry x="460" y="570" width="120" height="60" as="geometry" />
        </mxCell>
        <mxCell id="ayOUJVhJBm3OdMp9GAKg-48" value="produces" style="rhombus;whiteSpace=wrap;html=1;fontSize=12;" parent="1" vertex="1">
          <mxGeometry x="620" y="820" width="95" height="80" as="geometry" />
        </mxCell>
        <mxCell id="ayOUJVhJBm3OdMp9GAKg-49" value="" style="endArrow=none;html=1;rounded=0;entryX=1;entryY=0.5;entryDx=0;entryDy=0;exitX=0;exitY=0.5;exitDx=0;exitDy=0;fontSize=12;" parent="1" source="ayOUJVhJBm3OdMp9GAKg-35" target="ayOUJVhJBm3OdMp9GAKg-48" edge="1">
          <mxGeometry width="50" height="50" relative="1" as="geometry">
            <mxPoint x="657.5" y="410" as="sourcePoint" />
            <mxPoint x="702.5" y="450" as="targetPoint" />
          </mxGeometry>
        </mxCell>
        <mxCell id="ayOUJVhJBm3OdMp9GAKg-50" value="1" style="edgeLabel;html=1;align=center;verticalAlign=middle;resizable=0;points=[];fontSize=12;" parent="ayOUJVhJBm3OdMp9GAKg-49" vertex="1" connectable="0">
          <mxGeometry x="0.0222" y="1" relative="1" as="geometry">
            <mxPoint x="12" y="-9" as="offset" />
          </mxGeometry>
        </mxCell>
        <mxCell id="ayOUJVhJBm3OdMp9GAKg-58" value="Involves" style="rhombus;whiteSpace=wrap;html=1;fontSize=12;" parent="1" vertex="1">
          <mxGeometry x="772.5" y="1260" width="95" height="80" as="geometry" />
        </mxCell>
        <mxCell id="ayOUJVhJBm3OdMp9GAKg-59" value="" style="endArrow=none;html=1;rounded=0;entryX=0.5;entryY=0;entryDx=0;entryDy=0;exitX=0.481;exitY=1.005;exitDx=0;exitDy=0;exitPerimeter=0;fontSize=12;" parent="1" source="ayOUJVhJBm3OdMp9GAKg-44" target="ayOUJVhJBm3OdMp9GAKg-58" edge="1">
          <mxGeometry width="50" height="50" relative="1" as="geometry">
            <mxPoint x="920" y="1033" as="sourcePoint" />
            <mxPoint x="960" y="1100" as="targetPoint" />
          </mxGeometry>
        </mxCell>
        <mxCell id="ayOUJVhJBm3OdMp9GAKg-60" value="1" style="edgeLabel;html=1;align=center;verticalAlign=middle;resizable=0;points=[];fontSize=12;" parent="ayOUJVhJBm3OdMp9GAKg-59" vertex="1" connectable="0">
          <mxGeometry x="0.0222" y="1" relative="1" as="geometry">
            <mxPoint x="10" y="-46" as="offset" />
          </mxGeometry>
        </mxCell>
        <mxCell id="ayOUJVhJBm3OdMp9GAKg-61" value="" style="endArrow=none;html=1;rounded=0;exitX=0.5;exitY=1;exitDx=0;exitDy=0;entryX=0.5;entryY=0;entryDx=0;entryDy=0;fontSize=12;" parent="1" source="ayOUJVhJBm3OdMp9GAKg-58" target="ayOUJVhJBm3OdMp9GAKg-45" edge="1">
          <mxGeometry width="50" height="50" relative="1" as="geometry">
            <mxPoint x="905" y="1250" as="sourcePoint" />
            <mxPoint x="820" y="1480" as="targetPoint" />
          </mxGeometry>
        </mxCell>
        <mxCell id="ayOUJVhJBm3OdMp9GAKg-62" value="N" style="edgeLabel;html=1;align=center;verticalAlign=middle;resizable=0;points=[];fontSize=12;" parent="ayOUJVhJBm3OdMp9GAKg-61" vertex="1" connectable="0">
          <mxGeometry x="0.0222" y="1" relative="1" as="geometry">
            <mxPoint x="9" y="19" as="offset" />
          </mxGeometry>
        </mxCell>
        <mxCell id="ayOUJVhJBm3OdMp9GAKg-64" value="" style="endArrow=none;html=1;rounded=0;entryX=0;entryY=0.5;entryDx=0;entryDy=0;exitX=1;exitY=0.5;exitDx=0;exitDy=0;fontSize=12;" parent="1" source="ayOUJVhJBm3OdMp9GAKg-46" target="ayOUJVhJBm3OdMp9GAKg-48" edge="1">
          <mxGeometry relative="1" as="geometry">
            <mxPoint x="450" y="610" as="sourcePoint" />
            <mxPoint x="610" y="610" as="targetPoint" />
          </mxGeometry>
        </mxCell>
        <mxCell id="ayOUJVhJBm3OdMp9GAKg-65" value="N" style="resizable=0;html=1;whiteSpace=wrap;align=right;verticalAlign=bottom;fontSize=12;" parent="ayOUJVhJBm3OdMp9GAKg-64" connectable="0" vertex="1">
          <mxGeometry x="1" relative="1" as="geometry">
            <mxPoint x="-20" as="offset" />
          </mxGeometry>
        </mxCell>
        <mxCell id="ayOUJVhJBm3OdMp9GAKg-66" value="produces" style="rhombus;whiteSpace=wrap;html=1;fontSize=12;" parent="1" vertex="1">
          <mxGeometry x="472.5" y="690" width="95" height="80" as="geometry" />
        </mxCell>
        <mxCell id="ayOUJVhJBm3OdMp9GAKg-67" value="makes" style="rhombus;whiteSpace=wrap;html=1;fontSize=12;" parent="1" vertex="1">
          <mxGeometry x="472.5" y="420" width="95" height="80" as="geometry" />
        </mxCell>
        <mxCell id="ayOUJVhJBm3OdMp9GAKg-68" value="" style="endArrow=none;html=1;rounded=0;exitX=0.5;exitY=1;exitDx=0;exitDy=0;entryX=0.5;entryY=0;entryDx=0;entryDy=0;fontSize=12;" parent="1" source="ayOUJVhJBm3OdMp9GAKg-67" target="ayOUJVhJBm3OdMp9GAKg-47" edge="1">
          <mxGeometry relative="1" as="geometry">
            <mxPoint x="500" y="520" as="sourcePoint" />
            <mxPoint x="660" y="520" as="targetPoint" />
          </mxGeometry>
        </mxCell>
        <mxCell id="ayOUJVhJBm3OdMp9GAKg-69" value="N" style="resizable=0;html=1;whiteSpace=wrap;align=right;verticalAlign=bottom;fontSize=12;" parent="ayOUJVhJBm3OdMp9GAKg-68" connectable="0" vertex="1">
          <mxGeometry x="1" relative="1" as="geometry" />
        </mxCell>
        <mxCell id="ayOUJVhJBm3OdMp9GAKg-70" value="" style="endArrow=none;html=1;rounded=0;exitX=0.5;exitY=1;exitDx=0;exitDy=0;entryX=0.5;entryY=0;entryDx=0;entryDy=0;fontSize=12;" parent="1" source="ayOUJVhJBm3OdMp9GAKg-1" target="ayOUJVhJBm3OdMp9GAKg-67" edge="1">
          <mxGeometry relative="1" as="geometry">
            <mxPoint x="500" y="520" as="sourcePoint" />
            <mxPoint x="530" y="410" as="targetPoint" />
          </mxGeometry>
        </mxCell>
        <mxCell id="ayOUJVhJBm3OdMp9GAKg-71" value="1" style="resizable=0;html=1;whiteSpace=wrap;align=right;verticalAlign=bottom;fontSize=12;" parent="ayOUJVhJBm3OdMp9GAKg-70" connectable="0" vertex="1">
          <mxGeometry x="1" relative="1" as="geometry">
            <mxPoint y="-60" as="offset" />
          </mxGeometry>
        </mxCell>
        <mxCell id="ayOUJVhJBm3OdMp9GAKg-72" value="" style="endArrow=none;html=1;rounded=0;exitX=0.5;exitY=1;exitDx=0;exitDy=0;fontSize=12;" parent="1" source="ayOUJVhJBm3OdMp9GAKg-47" target="ayOUJVhJBm3OdMp9GAKg-66" edge="1">
          <mxGeometry relative="1" as="geometry">
            <mxPoint x="500" y="720" as="sourcePoint" />
            <mxPoint x="660" y="720" as="targetPoint" />
          </mxGeometry>
        </mxCell>
        <mxCell id="ayOUJVhJBm3OdMp9GAKg-73" value="N" style="resizable=0;html=1;whiteSpace=wrap;align=right;verticalAlign=bottom;fontSize=12;" parent="ayOUJVhJBm3OdMp9GAKg-72" connectable="0" vertex="1">
          <mxGeometry x="1" relative="1" as="geometry">
            <mxPoint y="-40" as="offset" />
          </mxGeometry>
        </mxCell>
        <mxCell id="ayOUJVhJBm3OdMp9GAKg-74" value="" style="endArrow=none;html=1;rounded=0;exitX=0.5;exitY=1;exitDx=0;exitDy=0;entryX=0.5;entryY=0;entryDx=0;entryDy=0;fontSize=12;" parent="1" source="ayOUJVhJBm3OdMp9GAKg-66" target="ayOUJVhJBm3OdMp9GAKg-46" edge="1">
          <mxGeometry relative="1" as="geometry">
            <mxPoint x="500" y="720" as="sourcePoint" />
            <mxPoint x="660" y="720" as="targetPoint" />
          </mxGeometry>
        </mxCell>
        <mxCell id="ayOUJVhJBm3OdMp9GAKg-75" value="N" style="resizable=0;html=1;whiteSpace=wrap;align=right;verticalAlign=bottom;fontSize=12;" parent="ayOUJVhJBm3OdMp9GAKg-74" connectable="0" vertex="1">
          <mxGeometry x="1" relative="1" as="geometry" />
        </mxCell>
        <mxCell id="ayOUJVhJBm3OdMp9GAKg-76" value="&lt;u style=&quot;font-size: 12px;&quot;&gt;DoctorID&lt;/u&gt;" style="ellipse;whiteSpace=wrap;html=1;fontSize=12;" parent="1" vertex="1">
          <mxGeometry x="990" y="700" width="110" height="80" as="geometry" />
        </mxCell>
        <mxCell id="ayOUJVhJBm3OdMp9GAKg-77" value="Name" style="ellipse;whiteSpace=wrap;html=1;fontSize=12;" parent="1" vertex="1">
          <mxGeometry x="990" y="790" width="110" height="80" as="geometry" />
        </mxCell>
        <mxCell id="ayOUJVhJBm3OdMp9GAKg-78" value="DateOfBirth" style="ellipse;whiteSpace=wrap;html=1;fontSize=12;" parent="1" vertex="1">
          <mxGeometry x="990" y="880" width="110" height="80" as="geometry" />
        </mxCell>
        <mxCell id="ayOUJVhJBm3OdMp9GAKg-79" value="Address" style="ellipse;whiteSpace=wrap;html=1;fontSize=12;" parent="1" vertex="1">
          <mxGeometry x="990" y="970" width="110" height="80" as="geometry" />
        </mxCell>
        <mxCell id="ayOUJVhJBm3OdMp9GAKg-80" value="" style="endArrow=none;html=1;rounded=0;entryX=1;entryY=0.5;entryDx=0;entryDy=0;exitX=0;exitY=0.5;exitDx=0;exitDy=0;fontSize=12;" parent="1" source="ayOUJVhJBm3OdMp9GAKg-78" target="ayOUJVhJBm3OdMp9GAKg-35" edge="1">
          <mxGeometry width="50" height="50" relative="1" as="geometry">
            <mxPoint x="1110" y="900" as="sourcePoint" />
            <mxPoint x="890" y="860" as="targetPoint" />
          </mxGeometry>
        </mxCell>
        <mxCell id="ayOUJVhJBm3OdMp9GAKg-81" value="" style="endArrow=none;html=1;rounded=0;entryX=1;entryY=0.5;entryDx=0;entryDy=0;exitX=0;exitY=0.5;exitDx=0;exitDy=0;fontSize=12;" parent="1" source="ayOUJVhJBm3OdMp9GAKg-79" target="ayOUJVhJBm3OdMp9GAKg-35" edge="1">
          <mxGeometry width="50" height="50" relative="1" as="geometry">
            <mxPoint x="1100" y="960" as="sourcePoint" />
            <mxPoint x="890" y="860" as="targetPoint" />
          </mxGeometry>
        </mxCell>
        <mxCell id="ayOUJVhJBm3OdMp9GAKg-82" value="" style="endArrow=none;html=1;rounded=0;entryX=1;entryY=0.5;entryDx=0;entryDy=0;exitX=0;exitY=0.5;exitDx=0;exitDy=0;fontSize=12;" parent="1" source="ayOUJVhJBm3OdMp9GAKg-76" target="ayOUJVhJBm3OdMp9GAKg-35" edge="1">
          <mxGeometry width="50" height="50" relative="1" as="geometry">
            <mxPoint x="1210" y="1130" as="sourcePoint" />
            <mxPoint x="890" y="860" as="targetPoint" />
          </mxGeometry>
        </mxCell>
        <mxCell id="ayOUJVhJBm3OdMp9GAKg-83" value="" style="endArrow=none;html=1;rounded=0;exitX=0;exitY=0.5;exitDx=0;exitDy=0;fontSize=12;" parent="1" source="ayOUJVhJBm3OdMp9GAKg-77" edge="1">
          <mxGeometry width="50" height="50" relative="1" as="geometry">
            <mxPoint x="1100" y="830" as="sourcePoint" />
            <mxPoint x="880" y="860" as="targetPoint" />
          </mxGeometry>
        </mxCell>
        <mxCell id="ayOUJVhJBm3OdMp9GAKg-84" value="" style="endArrow=none;html=1;rounded=0;entryX=1;entryY=0.5;entryDx=0;entryDy=0;exitX=0;exitY=0.5;exitDx=0;exitDy=0;fontSize=12;" parent="1" source="ayOUJVhJBm3OdMp9GAKg-85" target="ayOUJVhJBm3OdMp9GAKg-2" edge="1">
          <mxGeometry width="50" height="50" relative="1" as="geometry">
            <mxPoint x="990" y="550" as="sourcePoint" />
            <mxPoint x="890" y="400" as="targetPoint" />
          </mxGeometry>
        </mxCell>
        <mxCell id="ayOUJVhJBm3OdMp9GAKg-85" value="DoctorID (Foreign Key)" style="ellipse;whiteSpace=wrap;html=1;fontSize=12;" parent="1" vertex="1">
          <mxGeometry x="980" y="520" width="110" height="80" as="geometry" />
        </mxCell>
        <mxCell id="ayOUJVhJBm3OdMp9GAKg-87" value="" style="endArrow=none;html=1;rounded=0;entryX=1;entryY=0.5;entryDx=0;entryDy=0;exitX=0;exitY=0.5;exitDx=0;exitDy=0;fontSize=12;" parent="1" source="ayOUJVhJBm3OdMp9GAKg-88" target="ayOUJVhJBm3OdMp9GAKg-35" edge="1">
          <mxGeometry width="50" height="50" relative="1" as="geometry">
            <mxPoint x="1010" y="1130" as="sourcePoint" />
            <mxPoint x="900" y="980" as="targetPoint" />
          </mxGeometry>
        </mxCell>
        <mxCell id="ayOUJVhJBm3OdMp9GAKg-88" value="PhoneNumber" style="ellipse;whiteSpace=wrap;html=1;fontSize=12;" parent="1" vertex="1">
          <mxGeometry x="990" y="1060" width="110" height="80" as="geometry" />
        </mxCell>
        <mxCell id="ayOUJVhJBm3OdMp9GAKg-89" value="Salary" style="ellipse;whiteSpace=wrap;html=1;fontSize=12;" parent="1" vertex="1">
          <mxGeometry x="990" y="1150" width="110" height="80" as="geometry" />
        </mxCell>
        <mxCell id="ayOUJVhJBm3OdMp9GAKg-90" value="" style="endArrow=none;html=1;rounded=0;entryX=1;entryY=0.5;entryDx=0;entryDy=0;exitX=0;exitY=0.5;exitDx=0;exitDy=0;fontSize=12;" parent="1" source="ayOUJVhJBm3OdMp9GAKg-89" target="ayOUJVhJBm3OdMp9GAKg-35" edge="1">
          <mxGeometry width="50" height="50" relative="1" as="geometry">
            <mxPoint x="980" y="1170" as="sourcePoint" />
            <mxPoint x="870" y="930" as="targetPoint" />
          </mxGeometry>
        </mxCell>
        <mxCell id="ayOUJVhJBm3OdMp9GAKg-91" value="FieldArea" style="ellipse;whiteSpace=wrap;html=1;fontSize=12;" parent="1" vertex="1">
          <mxGeometry x="880" y="1210" width="110" height="80" as="geometry" />
        </mxCell>
        <mxCell id="ayOUJVhJBm3OdMp9GAKg-92" value="&lt;u style=&quot;font-size: 12px;&quot;&gt;DoctorID (PK,FK)&lt;/u&gt;" style="ellipse;whiteSpace=wrap;html=1;fontSize=12;" parent="1" vertex="1">
          <mxGeometry x="335" y="1080" width="110" height="80" as="geometry" />
        </mxCell>
        <mxCell id="ayOUJVhJBm3OdMp9GAKg-96" value="&lt;u style=&quot;font-size: 12px;&quot;&gt;SpecialtyID&lt;/u&gt;" style="ellipse;whiteSpace=wrap;html=1;fontSize=12;" parent="1" vertex="1">
          <mxGeometry x="630" y="1590.33" width="110" height="80" as="geometry" />
        </mxCell>
        <mxCell id="ayOUJVhJBm3OdMp9GAKg-97" value="Name" style="ellipse;whiteSpace=wrap;html=1;fontSize=12;" parent="1" vertex="1">
          <mxGeometry x="765" y="1590.33" width="110" height="80" as="geometry" />
        </mxCell>
        <mxCell id="ayOUJVhJBm3OdMp9GAKg-98" value="DoctorID (FK)" style="ellipse;whiteSpace=wrap;html=1;fontSize=12;" parent="1" vertex="1">
          <mxGeometry x="890" y="1590.33" width="110" height="80" as="geometry" />
        </mxCell>
        <mxCell id="ayOUJVhJBm3OdMp9GAKg-100" value="" style="endArrow=none;html=1;rounded=0;entryX=0.5;entryY=1;entryDx=0;entryDy=0;exitX=0.5;exitY=0;exitDx=0;exitDy=0;fontSize=12;" parent="1" source="ayOUJVhJBm3OdMp9GAKg-96" target="ayOUJVhJBm3OdMp9GAKg-45" edge="1">
          <mxGeometry relative="1" as="geometry">
            <mxPoint x="390" y="1490.33" as="sourcePoint" />
            <mxPoint x="540" y="1490.33" as="targetPoint" />
          </mxGeometry>
        </mxCell>
        <mxCell id="ayOUJVhJBm3OdMp9GAKg-102" value="" style="endArrow=none;html=1;rounded=0;entryX=0.5;entryY=0;entryDx=0;entryDy=0;exitX=0.5;exitY=1;exitDx=0;exitDy=0;fontSize=12;" parent="1" source="ayOUJVhJBm3OdMp9GAKg-45" target="ayOUJVhJBm3OdMp9GAKg-97" edge="1">
          <mxGeometry relative="1" as="geometry">
            <mxPoint x="400" y="1500.33" as="sourcePoint" />
            <mxPoint x="550" y="1500.33" as="targetPoint" />
          </mxGeometry>
        </mxCell>
        <mxCell id="ayOUJVhJBm3OdMp9GAKg-104" value="" style="endArrow=none;html=1;rounded=0;entryX=0.5;entryY=0;entryDx=0;entryDy=0;exitX=0.5;exitY=1;exitDx=0;exitDy=0;fontSize=12;" parent="1" source="ayOUJVhJBm3OdMp9GAKg-45" target="ayOUJVhJBm3OdMp9GAKg-98" edge="1">
          <mxGeometry relative="1" as="geometry">
            <mxPoint x="820" y="1550.33" as="sourcePoint" />
            <mxPoint x="970" y="1550.33" as="targetPoint" />
          </mxGeometry>
        </mxCell>
        <mxCell id="ayOUJVhJBm3OdMp9GAKg-106" value="&lt;u style=&quot;font-size: 12px;&quot;&gt;DoctorID&lt;/u&gt;" style="ellipse;whiteSpace=wrap;html=1;fontSize=12;" parent="1" vertex="1">
          <mxGeometry x="662.5" y="1210" width="110" height="80" as="geometry" />
        </mxCell>
        <mxCell id="ayOUJVhJBm3OdMp9GAKg-107" value="OvertimeRate" style="ellipse;whiteSpace=wrap;html=1;fontSize=12;" parent="1" vertex="1">
          <mxGeometry x="335" y="1190" width="110" height="80" as="geometry" />
        </mxCell>
        <mxCell id="ayOUJVhJBm3OdMp9GAKg-108" value="" style="endArrow=none;html=1;rounded=0;entryX=0;entryY=0.5;entryDx=0;entryDy=0;exitX=1;exitY=0.5;exitDx=0;exitDy=0;fontSize=12;" parent="1" source="ayOUJVhJBm3OdMp9GAKg-92" target="ayOUJVhJBm3OdMp9GAKg-43" edge="1">
          <mxGeometry relative="1" as="geometry">
            <mxPoint x="450" y="1230" as="sourcePoint" />
            <mxPoint x="610" y="1230" as="targetPoint" />
          </mxGeometry>
        </mxCell>
        <mxCell id="ayOUJVhJBm3OdMp9GAKg-110" value="" style="endArrow=none;html=1;rounded=0;entryX=0;entryY=0.5;entryDx=0;entryDy=0;exitX=1;exitY=0.5;exitDx=0;exitDy=0;fontSize=12;" parent="1" source="ayOUJVhJBm3OdMp9GAKg-107" target="ayOUJVhJBm3OdMp9GAKg-43" edge="1">
          <mxGeometry relative="1" as="geometry">
            <mxPoint x="440" y="1178.95" as="sourcePoint" />
            <mxPoint x="575" y="1178.95" as="targetPoint" />
          </mxGeometry>
        </mxCell>
        <mxCell id="ayOUJVhJBm3OdMp9GAKg-114" value="" style="endArrow=none;html=1;rounded=0;exitX=1;exitY=0.5;exitDx=0;exitDy=0;entryX=0.5;entryY=0;entryDx=0;entryDy=0;fontSize=12;" parent="1" source="ayOUJVhJBm3OdMp9GAKg-44" target="ayOUJVhJBm3OdMp9GAKg-91" edge="1">
          <mxGeometry relative="1" as="geometry">
            <mxPoint x="955" y="1320" as="sourcePoint" />
            <mxPoint x="1115" y="1320" as="targetPoint" />
          </mxGeometry>
        </mxCell>
        <mxCell id="ayOUJVhJBm3OdMp9GAKg-116" value="" style="endArrow=none;html=1;rounded=0;exitX=0;exitY=0.5;exitDx=0;exitDy=0;entryX=0.5;entryY=0;entryDx=0;entryDy=0;fontSize=12;" parent="1" source="ayOUJVhJBm3OdMp9GAKg-44" target="ayOUJVhJBm3OdMp9GAKg-106" edge="1">
          <mxGeometry relative="1" as="geometry">
            <mxPoint x="725" y="1120" as="sourcePoint" />
            <mxPoint x="760" y="1210" as="targetPoint" />
          </mxGeometry>
        </mxCell>
        <mxCell id="ayOUJVhJBm3OdMp9GAKg-120" value="&lt;u style=&quot;font-size: 12px;&quot;&gt;Bill ID&lt;/u&gt;" style="ellipse;whiteSpace=wrap;html=1;fontSize=12;" parent="1" vertex="1">
          <mxGeometry x="160" y="890" width="100" height="60" as="geometry" />
        </mxCell>
        <mxCell id="ayOUJVhJBm3OdMp9GAKg-121" value="TotalAmount" style="ellipse;whiteSpace=wrap;html=1;fontSize=12;" parent="1" vertex="1">
          <mxGeometry x="160" y="970" width="100" height="60" as="geometry" />
        </mxCell>
        <mxCell id="ayOUJVhJBm3OdMp9GAKg-122" value="Date" style="ellipse;whiteSpace=wrap;html=1;fontSize=12;" parent="1" vertex="1">
          <mxGeometry x="160" y="1040" width="100" height="60" as="geometry" />
        </mxCell>
        <mxCell id="ayOUJVhJBm3OdMp9GAKg-123" value="DoctorID(FK)" style="ellipse;whiteSpace=wrap;html=1;fontSize=12;" parent="1" vertex="1">
          <mxGeometry x="160" y="1120" width="100" height="60" as="geometry" />
        </mxCell>
        <mxCell id="ayOUJVhJBm3OdMp9GAKg-124" value="" style="endArrow=none;html=1;rounded=0;entryX=0;entryY=0.5;entryDx=0;entryDy=0;exitX=1;exitY=0.5;exitDx=0;exitDy=0;fontSize=12;" parent="1" source="ayOUJVhJBm3OdMp9GAKg-122" edge="1">
          <mxGeometry width="50" height="50" relative="1" as="geometry">
            <mxPoint x="380" y="940" as="sourcePoint" />
            <mxPoint x="460" y="860" as="targetPoint" />
          </mxGeometry>
        </mxCell>
        <mxCell id="ayOUJVhJBm3OdMp9GAKg-125" value="" style="endArrow=none;html=1;rounded=0;entryX=0;entryY=0.5;entryDx=0;entryDy=0;exitX=1;exitY=0.5;exitDx=0;exitDy=0;fontSize=12;" parent="1" source="ayOUJVhJBm3OdMp9GAKg-123" edge="1">
          <mxGeometry width="50" height="50" relative="1" as="geometry">
            <mxPoint x="370" y="1000" as="sourcePoint" />
            <mxPoint x="460" y="860" as="targetPoint" />
          </mxGeometry>
        </mxCell>
        <mxCell id="ayOUJVhJBm3OdMp9GAKg-126" value="" style="endArrow=none;html=1;rounded=0;entryX=0;entryY=0.5;entryDx=0;entryDy=0;exitX=1.01;exitY=0.617;exitDx=0;exitDy=0;exitPerimeter=0;fontSize=12;" parent="1" source="ayOUJVhJBm3OdMp9GAKg-120" edge="1">
          <mxGeometry width="50" height="50" relative="1" as="geometry">
            <mxPoint x="480" y="1170" as="sourcePoint" />
            <mxPoint x="460" y="860" as="targetPoint" />
          </mxGeometry>
        </mxCell>
        <mxCell id="ayOUJVhJBm3OdMp9GAKg-127" value="" style="endArrow=none;html=1;rounded=0;entryX=0;entryY=0.5;entryDx=0;entryDy=0;exitX=1;exitY=0.5;exitDx=0;exitDy=0;fontSize=12;" parent="1" source="ayOUJVhJBm3OdMp9GAKg-121" edge="1">
          <mxGeometry width="50" height="50" relative="1" as="geometry">
            <mxPoint x="370" y="870" as="sourcePoint" />
            <mxPoint x="460" y="860" as="targetPoint" />
          </mxGeometry>
        </mxCell>
        <mxCell id="ayOUJVhJBm3OdMp9GAKg-128" value="Amount" style="ellipse;whiteSpace=wrap;html=1;fontSize=12;" parent="1" vertex="1">
          <mxGeometry x="160" y="560" width="100" height="60" as="geometry" />
        </mxCell>
        <mxCell id="ayOUJVhJBm3OdMp9GAKg-129" value="PaymentMethod" style="ellipse;whiteSpace=wrap;html=1;fontSize=12;" parent="1" vertex="1">
          <mxGeometry x="160" y="640" width="100" height="60" as="geometry" />
        </mxCell>
        <mxCell id="ayOUJVhJBm3OdMp9GAKg-130" value="Date" style="ellipse;whiteSpace=wrap;html=1;fontSize=12;" parent="1" vertex="1">
          <mxGeometry x="160" y="710" width="100" height="60" as="geometry" />
        </mxCell>
        <mxCell id="ayOUJVhJBm3OdMp9GAKg-131" value="PatientID (FK)" style="ellipse;whiteSpace=wrap;html=1;fontSize=12;" parent="1" vertex="1">
          <mxGeometry x="160" y="790" width="100" height="60" as="geometry" />
        </mxCell>
        <mxCell id="ayOUJVhJBm3OdMp9GAKg-132" value="" style="endArrow=none;html=1;rounded=0;entryX=0;entryY=0.5;entryDx=0;entryDy=0;exitX=1;exitY=0.5;exitDx=0;exitDy=0;fontSize=12;" parent="1" source="ayOUJVhJBm3OdMp9GAKg-130" edge="1">
          <mxGeometry width="50" height="50" relative="1" as="geometry">
            <mxPoint x="380" y="680" as="sourcePoint" />
            <mxPoint x="460" y="600" as="targetPoint" />
          </mxGeometry>
        </mxCell>
        <mxCell id="ayOUJVhJBm3OdMp9GAKg-133" value="" style="endArrow=none;html=1;rounded=0;entryX=0;entryY=0.5;entryDx=0;entryDy=0;exitX=1;exitY=0.5;exitDx=0;exitDy=0;fontSize=12;" parent="1" source="ayOUJVhJBm3OdMp9GAKg-131" edge="1">
          <mxGeometry width="50" height="50" relative="1" as="geometry">
            <mxPoint x="370" y="740" as="sourcePoint" />
            <mxPoint x="460" y="600" as="targetPoint" />
          </mxGeometry>
        </mxCell>
        <mxCell id="ayOUJVhJBm3OdMp9GAKg-134" value="" style="endArrow=none;html=1;rounded=0;entryX=0;entryY=0.5;entryDx=0;entryDy=0;exitX=1.01;exitY=0.617;exitDx=0;exitDy=0;exitPerimeter=0;fontSize=12;" parent="1" source="ayOUJVhJBm3OdMp9GAKg-128" edge="1">
          <mxGeometry width="50" height="50" relative="1" as="geometry">
            <mxPoint x="480" y="910" as="sourcePoint" />
            <mxPoint x="460" y="600" as="targetPoint" />
          </mxGeometry>
        </mxCell>
        <mxCell id="ayOUJVhJBm3OdMp9GAKg-135" value="" style="endArrow=none;html=1;rounded=0;entryX=0;entryY=0.5;entryDx=0;entryDy=0;exitX=1;exitY=0.5;exitDx=0;exitDy=0;fontSize=12;" parent="1" source="ayOUJVhJBm3OdMp9GAKg-129" edge="1">
          <mxGeometry width="50" height="50" relative="1" as="geometry">
            <mxPoint x="370" y="610" as="sourcePoint" />
            <mxPoint x="460" y="600" as="targetPoint" />
          </mxGeometry>
        </mxCell>
        <mxCell id="ayOUJVhJBm3OdMp9GAKg-136" value="&lt;u style=&quot;font-size: 12px;&quot;&gt;PaymentID&lt;/u&gt;" style="ellipse;whiteSpace=wrap;html=1;fontSize=12;" parent="1" vertex="1">
          <mxGeometry x="160" y="490" width="100" height="60" as="geometry" />
        </mxCell>
        <mxCell id="ayOUJVhJBm3OdMp9GAKg-137" value="" style="endArrow=none;html=1;rounded=0;entryX=0;entryY=0.5;entryDx=0;entryDy=0;exitX=1.01;exitY=0.617;exitDx=0;exitDy=0;exitPerimeter=0;fontSize=12;" parent="1" source="ayOUJVhJBm3OdMp9GAKg-136" target="ayOUJVhJBm3OdMp9GAKg-47" edge="1">
          <mxGeometry width="50" height="50" relative="1" as="geometry">
            <mxPoint x="480" y="840" as="sourcePoint" />
            <mxPoint x="460" y="530" as="targetPoint" />
          </mxGeometry>
        </mxCell>
        <mxCell id="ayOUJVhJBm3OdMp9GAKg-138" value="Ehsan Goodarzi - Assignment: (Database Design)" style="rounded=0;whiteSpace=wrap;html=1;fillColor=#dae8fc;strokeColor=#6c8ebf;fontSize=12;" parent="1" vertex="1">
          <mxGeometry x="420" width="190" height="60" as="geometry" />
        </mxCell>
      </root>
    </mxGraphModel>
  </diagram>
  <diagram id="WOpy4APefcQlOUFv16DA" name="Page-2">
    <mxGraphModel dx="1615" dy="815" grid="1" gridSize="10" guides="1" tooltips="1" connect="1" arrows="1" fold="1" page="1" pageScale="1" pageWidth="1100" pageHeight="850" math="0" shadow="0">
      <root>
        <mxCell id="0" />
        <mxCell id="1" parent="0" />
        <mxCell id="4gqM86glhdax7Go4qi5H-1" value="Landing Page" style="shape=umlFrame;whiteSpace=wrap;html=1;pointerEvents=0;width=90;height=30;" vertex="1" parent="1">
          <mxGeometry x="400" y="40" width="490" height="200" as="geometry" />
        </mxCell>
        <mxCell id="4gqM86glhdax7Go4qi5H-3" value="Login/Sign up" style="ellipse;whiteSpace=wrap;html=1;" vertex="1" parent="1">
          <mxGeometry x="780" y="50" width="90" height="50" as="geometry" />
        </mxCell>
        <mxCell id="4gqM86glhdax7Go4qi5H-4" value="Booleans" style="ellipse;whiteSpace=wrap;html=1;" vertex="1" parent="1">
          <mxGeometry x="780" y="180" width="90" height="50" as="geometry" />
        </mxCell>
        <mxCell id="4gqM86glhdax7Go4qi5H-5" value="Strings" style="ellipse;whiteSpace=wrap;html=1;" vertex="1" parent="1">
          <mxGeometry x="670" y="180" width="90" height="50" as="geometry" />
        </mxCell>
        <mxCell id="4gqM86glhdax7Go4qi5H-6" value="Numbers" style="ellipse;whiteSpace=wrap;html=1;" vertex="1" parent="1">
          <mxGeometry x="560" y="180" width="90" height="50" as="geometry" />
        </mxCell>
        <mxCell id="4gqM86glhdax7Go4qi5H-15" style="edgeStyle=orthogonalEdgeStyle;rounded=0;orthogonalLoop=1;jettySize=auto;html=1;" edge="1" parent="1" source="4gqM86glhdax7Go4qi5H-7" target="4gqM86glhdax7Go4qi5H-11">
          <mxGeometry relative="1" as="geometry">
            <Array as="points">
              <mxPoint x="505" y="300" />
              <mxPoint x="645" y="300" />
            </Array>
          </mxGeometry>
        </mxCell>
        <mxCell id="4gqM86glhdax7Go4qi5H-7" value="Arrays" style="ellipse;whiteSpace=wrap;html=1;" vertex="1" parent="1">
          <mxGeometry x="460" y="180" width="90" height="50" as="geometry" />
        </mxCell>
        <mxCell id="4gqM86glhdax7Go4qi5H-8" value="Course Tiles" style="text;html=1;align=center;verticalAlign=middle;resizable=0;points=[];autosize=1;strokeColor=none;fillColor=none;" vertex="1" parent="1">
          <mxGeometry x="445" y="138" width="90" height="30" as="geometry" />
        </mxCell>
        <mxCell id="4gqM86glhdax7Go4qi5H-10" value="" style="edgeStyle=orthogonalEdgeStyle;rounded=0;orthogonalLoop=1;jettySize=auto;html=1;" edge="1" parent="1" source="4gqM86glhdax7Go4qi5H-9" target="4gqM86glhdax7Go4qi5H-1">
          <mxGeometry relative="1" as="geometry" />
        </mxCell>
        <mxCell id="4gqM86glhdax7Go4qi5H-9" value="Visitor" style="shape=umlActor;verticalLabelPosition=bottom;verticalAlign=top;html=1;" vertex="1" parent="1">
          <mxGeometry x="280" y="110" width="30" height="60" as="geometry" />
        </mxCell>
        <mxCell id="4gqM86glhdax7Go4qi5H-11" value="Login Page" style="shape=umlFrame;whiteSpace=wrap;html=1;pointerEvents=0;width=90;height=30;" vertex="1" parent="1">
          <mxGeometry x="400" y="360" width="490" height="200" as="geometry" />
        </mxCell>
        <mxCell id="4gqM86glhdax7Go4qi5H-12" value="Reset Password" style="ellipse;whiteSpace=wrap;html=1;" vertex="1" parent="1">
          <mxGeometry x="760" y="425" width="100" height="55" as="geometry" />
        </mxCell>
        <mxCell id="4gqM86glhdax7Go4qi5H-13" value="Sign up" style="ellipse;whiteSpace=wrap;html=1;" vertex="1" parent="1">
          <mxGeometry x="600" y="425" width="100" height="55" as="geometry" />
        </mxCell>
        <mxCell id="4gqM86glhdax7Go4qi5H-14" value="Login" style="ellipse;whiteSpace=wrap;html=1;" vertex="1" parent="1">
          <mxGeometry x="450" y="425" width="100" height="55" as="geometry" />
        </mxCell>
        <mxCell id="4gqM86glhdax7Go4qi5H-19" style="edgeStyle=orthogonalEdgeStyle;rounded=0;orthogonalLoop=1;jettySize=auto;html=1;exitX=0.5;exitY=1;exitDx=0;exitDy=0;entryX=0.498;entryY=-0.001;entryDx=0;entryDy=0;entryPerimeter=0;" edge="1" parent="1" source="4gqM86glhdax7Go4qi5H-6" target="4gqM86glhdax7Go4qi5H-11">
          <mxGeometry relative="1" as="geometry">
            <Array as="points">
              <mxPoint x="605" y="300" />
              <mxPoint x="644" y="300" />
            </Array>
          </mxGeometry>
        </mxCell>
        <mxCell id="4gqM86glhdax7Go4qi5H-20" style="edgeStyle=orthogonalEdgeStyle;rounded=0;orthogonalLoop=1;jettySize=auto;html=1;entryX=0.499;entryY=-0.001;entryDx=0;entryDy=0;entryPerimeter=0;" edge="1" parent="1" source="4gqM86glhdax7Go4qi5H-5" target="4gqM86glhdax7Go4qi5H-11">
          <mxGeometry relative="1" as="geometry">
            <Array as="points">
              <mxPoint x="715" y="300" />
              <mxPoint x="645" y="300" />
            </Array>
          </mxGeometry>
        </mxCell>
        <mxCell id="4gqM86glhdax7Go4qi5H-21" style="edgeStyle=orthogonalEdgeStyle;rounded=0;orthogonalLoop=1;jettySize=auto;html=1;entryX=0.499;entryY=0.002;entryDx=0;entryDy=0;entryPerimeter=0;" edge="1" parent="1" source="4gqM86glhdax7Go4qi5H-4" target="4gqM86glhdax7Go4qi5H-11">
          <mxGeometry relative="1" as="geometry">
            <Array as="points">
              <mxPoint x="825" y="300" />
              <mxPoint x="645" y="300" />
            </Array>
          </mxGeometry>
        </mxCell>
        <mxCell id="4gqM86glhdax7Go4qi5H-23" style="edgeStyle=orthogonalEdgeStyle;rounded=0;orthogonalLoop=1;jettySize=auto;html=1;entryX=0.5;entryY=0.002;entryDx=0;entryDy=0;entryPerimeter=0;" edge="1" parent="1" source="4gqM86glhdax7Go4qi5H-3" target="4gqM86glhdax7Go4qi5H-11">
          <mxGeometry relative="1" as="geometry">
            <Array as="points">
              <mxPoint x="910" y="75" />
              <mxPoint x="910" y="300" />
              <mxPoint x="645" y="300" />
            </Array>
          </mxGeometry>
        </mxCell>
        <mxCell id="4gqM86glhdax7Go4qi5H-24" value="Home Page" style="shape=umlFrame;whiteSpace=wrap;html=1;pointerEvents=0;width=90;height=30;" vertex="1" parent="1">
          <mxGeometry x="405" y="590" width="490" height="200" as="geometry" />
        </mxCell>
        <mxCell id="4gqM86glhdax7Go4qi5H-25" value="Course Page" style="shape=umlFrame;whiteSpace=wrap;html=1;pointerEvents=0;width=90;height=30;" vertex="1" parent="1">
          <mxGeometry x="405" y="820" width="490" height="200" as="geometry" />
        </mxCell>
        <mxCell id="4gqM86glhdax7Go4qi5H-26" value="Course Progress" style="shape=umlFrame;whiteSpace=wrap;html=1;pointerEvents=0;width=90;height=30;" vertex="1" parent="1">
          <mxGeometry x="405" y="1050" width="490" height="90" as="geometry" />
        </mxCell>
        <mxCell id="4gqM86glhdax7Go4qi5H-52" style="edgeStyle=orthogonalEdgeStyle;rounded=0;orthogonalLoop=1;jettySize=auto;html=1;entryX=0.006;entryY=0.608;entryDx=0;entryDy=0;entryPerimeter=0;" edge="1" parent="1" source="4gqM86glhdax7Go4qi5H-27" target="4gqM86glhdax7Go4qi5H-24">
          <mxGeometry relative="1" as="geometry">
            <mxPoint x="230" y="740" as="targetPoint" />
            <Array as="points">
              <mxPoint x="650" y="1420" />
              <mxPoint x="290" y="1420" />
              <mxPoint x="290" y="712" />
            </Array>
          </mxGeometry>
        </mxCell>
        <mxCell id="4gqM86glhdax7Go4qi5H-27" value="Quiz" style="shape=umlFrame;whiteSpace=wrap;html=1;pointerEvents=0;width=90;height=30;" vertex="1" parent="1">
          <mxGeometry x="405" y="1230" width="490" height="100" as="geometry" />
        </mxCell>
        <mxCell id="4gqM86glhdax7Go4qi5H-65" style="edgeStyle=orthogonalEdgeStyle;rounded=0;orthogonalLoop=1;jettySize=auto;html=1;entryX=0;entryY=0.5;entryDx=0;entryDy=0;dashed=1;" edge="1" parent="1" source="4gqM86glhdax7Go4qi5H-28" target="4gqM86glhdax7Go4qi5H-47">
          <mxGeometry relative="1" as="geometry" />
        </mxCell>
        <mxCell id="4gqM86glhdax7Go4qi5H-28" value="Answer" style="ellipse;whiteSpace=wrap;html=1;align=center;fontStyle=4;" vertex="1" parent="1">
          <mxGeometry x="600" y="1270" width="100" height="40" as="geometry" />
        </mxCell>
        <mxCell id="4gqM86glhdax7Go4qi5H-29" value="Play" style="ellipse;whiteSpace=wrap;html=1;align=center;fontStyle=4;" vertex="1" parent="1">
          <mxGeometry x="730" y="890" width="110" height="60" as="geometry" />
        </mxCell>
        <mxCell id="4gqM86glhdax7Go4qi5H-30" value="Back" style="ellipse;whiteSpace=wrap;html=1;align=center;fontStyle=4;" vertex="1" parent="1">
          <mxGeometry x="570" y="890" width="100" height="60" as="geometry" />
        </mxCell>
        <mxCell id="4gqM86glhdax7Go4qi5H-31" style="edgeStyle=orthogonalEdgeStyle;rounded=0;orthogonalLoop=1;jettySize=auto;html=1;entryX=0.511;entryY=0.01;entryDx=0;entryDy=0;entryPerimeter=0;" edge="1" parent="1" source="4gqM86glhdax7Go4qi5H-29" target="4gqM86glhdax7Go4qi5H-26">
          <mxGeometry relative="1" as="geometry">
            <Array as="points">
              <mxPoint x="785" y="1000" />
              <mxPoint x="655" y="1000" />
              <mxPoint x="655" y="1040" />
            </Array>
          </mxGeometry>
        </mxCell>
        <mxCell id="4gqM86glhdax7Go4qi5H-37" value="Booleans" style="ellipse;whiteSpace=wrap;html=1;" vertex="1" parent="1">
          <mxGeometry x="770" y="690" width="90" height="50" as="geometry" />
        </mxCell>
        <mxCell id="4gqM86glhdax7Go4qi5H-38" value="Strings" style="ellipse;whiteSpace=wrap;html=1;" vertex="1" parent="1">
          <mxGeometry x="660" y="690" width="90" height="50" as="geometry" />
        </mxCell>
        <mxCell id="4gqM86glhdax7Go4qi5H-39" value="Numbers" style="ellipse;whiteSpace=wrap;html=1;" vertex="1" parent="1">
          <mxGeometry x="550" y="690" width="90" height="50" as="geometry" />
        </mxCell>
        <mxCell id="4gqM86glhdax7Go4qi5H-40" style="edgeStyle=orthogonalEdgeStyle;rounded=0;orthogonalLoop=1;jettySize=auto;html=1;" edge="1" parent="1" source="4gqM86glhdax7Go4qi5H-41">
          <mxGeometry relative="1" as="geometry">
            <mxPoint x="635" y="820" as="targetPoint" />
            <Array as="points">
              <mxPoint x="495" y="760" />
              <mxPoint x="635" y="760" />
            </Array>
          </mxGeometry>
        </mxCell>
        <mxCell id="4gqM86glhdax7Go4qi5H-41" value="Arrays" style="ellipse;whiteSpace=wrap;html=1;" vertex="1" parent="1">
          <mxGeometry x="450" y="690" width="90" height="50" as="geometry" />
        </mxCell>
        <mxCell id="4gqM86glhdax7Go4qi5H-42" style="edgeStyle=orthogonalEdgeStyle;rounded=0;orthogonalLoop=1;jettySize=auto;html=1;exitX=0.5;exitY=1;exitDx=0;exitDy=0;entryX=0.498;entryY=-0.001;entryDx=0;entryDy=0;entryPerimeter=0;" edge="1" parent="1" source="4gqM86glhdax7Go4qi5H-39">
          <mxGeometry relative="1" as="geometry">
            <mxPoint x="634" y="820" as="targetPoint" />
            <Array as="points">
              <mxPoint x="595" y="760" />
              <mxPoint x="634" y="760" />
            </Array>
          </mxGeometry>
        </mxCell>
        <mxCell id="4gqM86glhdax7Go4qi5H-43" style="edgeStyle=orthogonalEdgeStyle;rounded=0;orthogonalLoop=1;jettySize=auto;html=1;entryX=0.499;entryY=-0.001;entryDx=0;entryDy=0;entryPerimeter=0;" edge="1" parent="1" source="4gqM86glhdax7Go4qi5H-38">
          <mxGeometry relative="1" as="geometry">
            <mxPoint x="635" y="820" as="targetPoint" />
            <Array as="points">
              <mxPoint x="705" y="760" />
              <mxPoint x="635" y="760" />
            </Array>
          </mxGeometry>
        </mxCell>
        <mxCell id="4gqM86glhdax7Go4qi5H-44" style="edgeStyle=orthogonalEdgeStyle;rounded=0;orthogonalLoop=1;jettySize=auto;html=1;entryX=0.499;entryY=0.002;entryDx=0;entryDy=0;entryPerimeter=0;" edge="1" parent="1" source="4gqM86glhdax7Go4qi5H-37">
          <mxGeometry relative="1" as="geometry">
            <mxPoint x="635" y="820" as="targetPoint" />
            <Array as="points">
              <mxPoint x="815" y="760" />
              <mxPoint x="635" y="760" />
            </Array>
          </mxGeometry>
        </mxCell>
        <mxCell id="4gqM86glhdax7Go4qi5H-45" value="Load user Progress" style="whiteSpace=wrap;html=1;align=center;" vertex="1" parent="1">
          <mxGeometry x="950" y="1060" width="110" height="40" as="geometry" />
        </mxCell>
        <mxCell id="4gqM86glhdax7Go4qi5H-46" value="Load Question/Content" style="whiteSpace=wrap;html=1;align=center;" vertex="1" parent="1">
          <mxGeometry x="950" y="1190" width="110" height="40" as="geometry" />
        </mxCell>
        <mxCell id="4gqM86glhdax7Go4qi5H-47" value="Gather input" style="whiteSpace=wrap;html=1;align=center;" vertex="1" parent="1">
          <mxGeometry x="950" y="1270" width="110" height="40" as="geometry" />
        </mxCell>
        <mxCell id="4gqM86glhdax7Go4qi5H-48" value="Validatee input&lt;br&gt;Generate feedback" style="whiteSpace=wrap;html=1;align=center;" vertex="1" parent="1">
          <mxGeometry x="950" y="1340" width="110" height="40" as="geometry" />
        </mxCell>
        <mxCell id="4gqM86glhdax7Go4qi5H-50" style="edgeStyle=orthogonalEdgeStyle;rounded=0;orthogonalLoop=1;jettySize=auto;html=1;entryX=0.62;entryY=-0.009;entryDx=0;entryDy=0;entryPerimeter=0;" edge="1" parent="1" source="4gqM86glhdax7Go4qi5H-46" target="4gqM86glhdax7Go4qi5H-27">
          <mxGeometry relative="1" as="geometry" />
        </mxCell>
        <mxCell id="4gqM86glhdax7Go4qi5H-51" style="edgeStyle=orthogonalEdgeStyle;rounded=0;orthogonalLoop=1;jettySize=auto;html=1;entryX=0.501;entryY=-0.015;entryDx=0;entryDy=0;entryPerimeter=0;" edge="1" parent="1" source="4gqM86glhdax7Go4qi5H-26" target="4gqM86glhdax7Go4qi5H-27">
          <mxGeometry relative="1" as="geometry" />
        </mxCell>
        <mxCell id="4gqM86glhdax7Go4qi5H-67" style="edgeStyle=orthogonalEdgeStyle;rounded=0;orthogonalLoop=1;jettySize=auto;html=1;entryX=1;entryY=1;entryDx=0;entryDy=0;entryPerimeter=0;dashed=1;" edge="1" parent="1" source="4gqM86glhdax7Go4qi5H-53" target="4gqM86glhdax7Go4qi5H-9">
          <mxGeometry relative="1" as="geometry">
            <Array as="points">
              <mxPoint x="1020" y="580" />
              <mxPoint x="330" y="580" />
              <mxPoint x="330" y="170" />
            </Array>
          </mxGeometry>
        </mxCell>
        <mxCell id="4gqM86glhdax7Go4qi5H-53" value="Log out user" style="whiteSpace=wrap;html=1;align=center;" vertex="1" parent="1">
          <mxGeometry x="960" y="605" width="120" height="60" as="geometry" />
        </mxCell>
        <mxCell id="4gqM86glhdax7Go4qi5H-54" value="Create user/login&lt;br&gt;user/send reset&lt;br&gt;email" style="whiteSpace=wrap;html=1;align=center;" vertex="1" parent="1">
          <mxGeometry x="960" y="440" width="120" height="70" as="geometry" />
        </mxCell>
        <mxCell id="4gqM86glhdax7Go4qi5H-55" style="edgeStyle=orthogonalEdgeStyle;rounded=0;orthogonalLoop=1;jettySize=auto;html=1;entryX=1.014;entryY=0.558;entryDx=0;entryDy=0;entryPerimeter=0;" edge="1" parent="1" source="4gqM86glhdax7Go4qi5H-54" target="4gqM86glhdax7Go4qi5H-11">
          <mxGeometry relative="1" as="geometry">
            <Array as="points">
              <mxPoint x="950" y="472" />
              <mxPoint x="950" y="472" />
            </Array>
          </mxGeometry>
        </mxCell>
        <mxCell id="4gqM86glhdax7Go4qi5H-68" style="edgeStyle=orthogonalEdgeStyle;rounded=0;orthogonalLoop=1;jettySize=auto;html=1;entryX=0;entryY=0.5;entryDx=0;entryDy=0;dashed=1;" edge="1" parent="1" source="4gqM86glhdax7Go4qi5H-56" target="4gqM86glhdax7Go4qi5H-53">
          <mxGeometry relative="1" as="geometry" />
        </mxCell>
        <mxCell id="4gqM86glhdax7Go4qi5H-56" value="Log out" style="ellipse;whiteSpace=wrap;html=1;" vertex="1" parent="1">
          <mxGeometry x="770" y="610" width="90" height="50" as="geometry" />
        </mxCell>
        <mxCell id="4gqM86glhdax7Go4qi5H-57" value="Logged in User" style="shape=umlActor;verticalLabelPosition=bottom;verticalAlign=top;html=1;" vertex="1" parent="1">
          <mxGeometry x="280" y="600" width="30" height="60" as="geometry" />
        </mxCell>
        <mxCell id="4gqM86glhdax7Go4qi5H-58" style="edgeStyle=orthogonalEdgeStyle;rounded=0;orthogonalLoop=1;jettySize=auto;html=1;entryX=-0.002;entryY=0.196;entryDx=0;entryDy=0;entryPerimeter=0;" edge="1" parent="1" source="4gqM86glhdax7Go4qi5H-57" target="4gqM86glhdax7Go4qi5H-24">
          <mxGeometry relative="1" as="geometry" />
        </mxCell>
        <mxCell id="4gqM86glhdax7Go4qi5H-61" style="edgeStyle=orthogonalEdgeStyle;rounded=0;orthogonalLoop=1;jettySize=auto;html=1;entryX=0.5;entryY=0;entryDx=0;entryDy=0;entryPerimeter=0;dashed=1;" edge="1" parent="1" source="4gqM86glhdax7Go4qi5H-9" target="4gqM86glhdax7Go4qi5H-57">
          <mxGeometry relative="1" as="geometry" />
        </mxCell>
        <mxCell id="4gqM86glhdax7Go4qi5H-64" style="edgeStyle=orthogonalEdgeStyle;rounded=0;orthogonalLoop=1;jettySize=auto;html=1;entryX=-0.009;entryY=0.892;entryDx=0;entryDy=0;entryPerimeter=0;" edge="1" parent="1" source="4gqM86glhdax7Go4qi5H-30" target="4gqM86glhdax7Go4qi5H-24">
          <mxGeometry relative="1" as="geometry">
            <Array as="points">
              <mxPoint x="310" y="920" />
              <mxPoint x="310" y="768" />
            </Array>
          </mxGeometry>
        </mxCell>
        <mxCell id="4gqM86glhdax7Go4qi5H-66" style="edgeStyle=orthogonalEdgeStyle;rounded=0;orthogonalLoop=1;jettySize=auto;html=1;entryX=0.585;entryY=1.013;entryDx=0;entryDy=0;entryPerimeter=0;" edge="1" parent="1" source="4gqM86glhdax7Go4qi5H-48" target="4gqM86glhdax7Go4qi5H-27">
          <mxGeometry relative="1" as="geometry" />
        </mxCell>
        <mxCell id="4gqM86glhdax7Go4qi5H-76" style="edgeStyle=orthogonalEdgeStyle;rounded=0;orthogonalLoop=1;jettySize=auto;html=1;entryX=1;entryY=0.5;entryDx=0;entryDy=0;" edge="1" parent="1" source="4gqM86glhdax7Go4qi5H-69" target="4gqM86glhdax7Go4qi5H-54">
          <mxGeometry relative="1" as="geometry">
            <Array as="points">
              <mxPoint x="1110" y="630" />
              <mxPoint x="1110" y="475" />
            </Array>
          </mxGeometry>
        </mxCell>
        <mxCell id="4gqM86glhdax7Go4qi5H-77" style="edgeStyle=orthogonalEdgeStyle;rounded=0;orthogonalLoop=1;jettySize=auto;html=1;entryX=1;entryY=0.5;entryDx=0;entryDy=0;" edge="1" parent="1" source="4gqM86glhdax7Go4qi5H-69" target="4gqM86glhdax7Go4qi5H-53">
          <mxGeometry relative="1" as="geometry">
            <Array as="points">
              <mxPoint x="1110" y="630" />
              <mxPoint x="1110" y="635" />
            </Array>
          </mxGeometry>
        </mxCell>
        <mxCell id="4gqM86glhdax7Go4qi5H-78" style="edgeStyle=orthogonalEdgeStyle;rounded=0;orthogonalLoop=1;jettySize=auto;html=1;entryX=1;entryY=0.75;entryDx=0;entryDy=0;" edge="1" parent="1" source="4gqM86glhdax7Go4qi5H-69" target="4gqM86glhdax7Go4qi5H-45">
          <mxGeometry relative="1" as="geometry">
            <Array as="points">
              <mxPoint x="1110" y="630" />
              <mxPoint x="1110" y="1090" />
            </Array>
          </mxGeometry>
        </mxCell>
        <mxCell id="4gqM86glhdax7Go4qi5H-79" style="edgeStyle=orthogonalEdgeStyle;rounded=0;orthogonalLoop=1;jettySize=auto;html=1;entryX=1;entryY=0.5;entryDx=0;entryDy=0;" edge="1" parent="1" source="4gqM86glhdax7Go4qi5H-69" target="4gqM86glhdax7Go4qi5H-46">
          <mxGeometry relative="1" as="geometry">
            <Array as="points">
              <mxPoint x="1110" y="630" />
              <mxPoint x="1110" y="1210" />
            </Array>
          </mxGeometry>
        </mxCell>
        <mxCell id="4gqM86glhdax7Go4qi5H-80" style="edgeStyle=orthogonalEdgeStyle;rounded=0;orthogonalLoop=1;jettySize=auto;html=1;entryX=1;entryY=0.5;entryDx=0;entryDy=0;" edge="1" parent="1" source="4gqM86glhdax7Go4qi5H-69" target="4gqM86glhdax7Go4qi5H-48">
          <mxGeometry relative="1" as="geometry">
            <Array as="points">
              <mxPoint x="1110" y="630" />
              <mxPoint x="1110" y="1360" />
            </Array>
          </mxGeometry>
        </mxCell>
        <mxCell id="4gqM86glhdax7Go4qi5H-69" value="Backend" style="shape=umlActor;verticalLabelPosition=bottom;verticalAlign=top;html=1;" vertex="1" parent="1">
          <mxGeometry x="1140" y="590" width="30" height="60" as="geometry" />
        </mxCell>
        <mxCell id="4gqM86glhdax7Go4qi5H-72" style="edgeStyle=orthogonalEdgeStyle;rounded=0;orthogonalLoop=1;jettySize=auto;html=1;" edge="1" parent="1" source="4gqM86glhdax7Go4qi5H-27" target="4gqM86glhdax7Go4qi5H-27">
          <mxGeometry relative="1" as="geometry">
            <mxPoint x="550" y="1170" as="targetPoint" />
            <mxPoint x="550" y="1330" as="sourcePoint" />
            <Array as="points">
              <mxPoint x="550" y="1370" />
              <mxPoint x="320" y="1370" />
              <mxPoint x="320" y="1190" />
              <mxPoint x="550" y="1190" />
            </Array>
          </mxGeometry>
        </mxCell>
        <mxCell id="4gqM86glhdax7Go4qi5H-73" value="Next Question" style="text;html=1;align=center;verticalAlign=middle;resizable=0;points=[];autosize=1;strokeColor=none;fillColor=none;" vertex="1" parent="1">
          <mxGeometry x="360" y="1368" width="100" height="30" as="geometry" />
        </mxCell>
        <mxCell id="4gqM86glhdax7Go4qi5H-74" style="edgeStyle=orthogonalEdgeStyle;rounded=0;orthogonalLoop=1;jettySize=auto;html=1;dashed=1;" edge="1" parent="1" source="4gqM86glhdax7Go4qi5H-47" target="4gqM86glhdax7Go4qi5H-69">
          <mxGeometry relative="1" as="geometry" />
        </mxCell>
        <mxCell id="4gqM86glhdax7Go4qi5H-75" style="edgeStyle=orthogonalEdgeStyle;rounded=0;orthogonalLoop=1;jettySize=auto;html=1;entryX=1.001;entryY=0.324;entryDx=0;entryDy=0;entryPerimeter=0;" edge="1" parent="1" source="4gqM86glhdax7Go4qi5H-45" target="4gqM86glhdax7Go4qi5H-26">
          <mxGeometry relative="1" as="geometry" />
        </mxCell>
        <mxCell id="4gqM86glhdax7Go4qi5H-82" value="Use Case for 3rd Semester" style="ellipse;whiteSpace=wrap;html=1;fillColor=#dae8fc;strokeColor=#6c8ebf;" vertex="1" parent="1">
          <mxGeometry x="1210" y="1170" width="140" height="70" as="geometry" />
        </mxCell>
        <mxCell id="4gqM86glhdax7Go4qi5H-83" value="Use Case for 4th Semester" style="ellipse;whiteSpace=wrap;html=1;fillColor=#d5e8d4;strokeColor=#82b366;" vertex="1" parent="1">
          <mxGeometry x="1210" y="1260" width="140" height="70" as="geometry" />
        </mxCell>
      </root>
    </mxGraphModel>
  </diagram>
</mxfile>
